<?xml version="1.0" encoding="UTF-8"?>
<svg id="Layer_1" xmlns="http://www.w3.org/2000/svg" xmlns:serif="http://www.serif.com/" version="1.1" viewBox="0 0 1080.25 1080.28">
  <!-- Generator: Adobe Illustrator 30.1.0, SVG Export Plug-In . SVG Version: 2.1.1 Build 136)  -->
  <defs>
    <style>
      .st0 {
        fill: #fff;
      }
    </style>
  </defs>
  <path class="st0" d="M1000.33,0c44.05,0,79.92,34.87,79.92,77.89v924.44c0,43.02-35.87,77.95-79.91,77.95H79.68c-43.96,0-79.68-34.93-79.68-77.95V77.89C0,34.87,35.72,0,79.68,0h920.66,0ZM920.54,920.51v-282.73c0-138.84-29.98-245.59-192.21-245.59-77.95,0-130.23,42.74-151.59,83.27h-2.19v-70.48h-153.59v515.52h160.03v-254.98c0-67.25,12.72-132.41,96.09-132.41s83.25,76.91,83.25,136.69v250.7h160.21ZM320.44,404.99h-160.38v515.52h160.38V404.99ZM240.29,148.72c-51.46,0-92.95,41.63-92.95,92.91s41.49,92.92,92.95,92.92,92.87-41.63,92.87-92.92-41.61-92.91-92.87-92.91h0Z"/>
</svg>