<?xml version="1.0" encoding="UTF-8"?>
<svg id="Layer_1" xmlns="http://www.w3.org/2000/svg" version="1.1" viewBox="0 0 22 22">
  <!-- Generator: Adobe Illustrator 30.1.0, SVG Export Plug-In . SVG Version: 2.1.1 Build 136)  -->
  <path d="M20,0H2C.89,0,0,.89,0,2v18c0,1.1.89,2,2,2h18c1.1,0,2-.9,2-2V2c0-1.11-.9-2-2-2ZM18.69,9.47c-.13.01-.26.02-.39.02-1.5,0-2.81-.77-3.57-1.93v6.58c0,2.68-2.18,4.86-4.86,4.86-2.68,0-4.86-2.18-4.86-4.86s2.18-4.86,4.86-4.86c.1,0,.2,0,.3.02v2.4c-.1-.01-.2-.03-.3-.03-1.37,0-2.48,1.11-2.48,2.48s1.11,2.48,2.48,2.48,2.58-1.08,2.58-2.45c0-.06.02-11.17.02-11.17h2.29c.22,2.05,1.87,3.66,3.93,3.81v2.66Z"/>
</svg>