<?xml version="1.0" encoding="UTF-8"?>
<svg id="Layer_1" xmlns="http://www.w3.org/2000/svg" xmlns:serif="http://www.serif.com/" version="1.1" viewBox="0 0 1080 756">
  <!-- Generator: Adobe Illustrator 30.1.0, SVG Export Plug-In . SVG Version: 2.1.1 Build 136)  -->
  <defs>
    <style>
      .st0 {
        fill: #fff;
      }
    </style>
  </defs>
  <path class="st0" d="M1057.44,118.05c-12.42-46.47-49.01-83.06-95.48-95.48C877.72,0,540,0,540,0c0,0-337.73,0-421.96,22.57-46.46,12.42-83.06,49.01-95.48,95.48C0,202.27,0,378.01,0,378.01c0,0,0,175.73,22.56,259.94,12.42,46.47,49.02,83.07,95.48,95.49,84.23,22.56,421.96,22.56,421.96,22.56,0,0,337.72,0,421.96-22.56,46.47-12.42,83.06-49.02,95.48-95.49,22.56-84.21,22.56-259.94,22.56-259.94,0,0,0-175.73-22.56-259.96h0ZM431.99,540.01V216l280.59,162-280.59,162h0Z"/>
</svg>