<?xml version="1.0" encoding="UTF-8"?>
<svg id="Layer_1" xmlns="http://www.w3.org/2000/svg" version="1.1" viewBox="0 0 20 20">
  <!-- Generator: Adobe Illustrator 30.1.0, SVG Export Plug-In . SVG Version: 2.1.1 Build 136)  -->
  <path d="M10,0c-1.31,0-2.61.26-3.83.76-1.21.5-2.32,1.24-3.24,2.17C1.05,4.8,0,7.35,0,10s1.05,5.2,2.93,7.07c.93.93,2.03,1.67,3.24,2.17,1.21.5,2.51.76,3.83.76,2.65,0,5.2-1.05,7.07-2.93,1.88-1.88,2.93-4.42,2.93-7.07,0-1.31-.26-2.61-.76-3.83-.5-1.21-1.24-2.32-2.17-3.24-.93-.93-2.03-1.67-3.24-2.17-1.21-.5-2.51-.76-3.83-.76ZM14.2,14.2l-5.2-3.2v-6h1.5v5.2l4.5,2.7-.8,1.3Z"/>
</svg>