<?xml version="1.0" encoding="UTF-8"?>
<svg id="Layer_1" xmlns="http://www.w3.org/2000/svg" version="1.1" viewBox="0 0 18 21">
  <!-- Generator: Adobe Illustrator 30.1.0, SVG Export Plug-In . SVG Version: 2.1.1 Build 136)  -->
  <defs>
    <style>
      .st0 {
        fill-rule: evenodd;
      }
    </style>
  </defs>
  <path class="st0" d="M2.67,2.59C4.35.94,6.62,0,8.98,0c2.36,0,4.63.92,6.32,2.56h0l.03.03c3.54,3.49,3.55,9.09.04,12.54l-5.67,5.58c-.19.18-.44.29-.7.29s-.51-.1-.7-.29l-5.67-5.58c-.83-.81-1.49-1.79-1.95-2.86-.45-1.07-.68-2.23-.68-3.39s.23-2.32.68-3.39c.45-1.07,1.11-2.05,1.95-2.86l.04-.04ZM9,5c-.39,0-.78.08-1.15.23-.36.15-.69.37-.97.65-.28.28-.5.61-.65.97-.15.36-.23.75-.23,1.15s.08.78.23,1.15c.15.36.37.69.65.97.28.28.61.5.97.65.36.15.75.23,1.15.23.8,0,1.56-.32,2.12-.88.56-.56.88-1.33.88-2.12s-.32-1.56-.88-2.12-1.33-.88-2.12-.88Z"/>
</svg>