<?xml version="1.0" encoding="UTF-8"?>
<svg id="Layer_1" xmlns="http://www.w3.org/2000/svg" version="1.1" viewBox="0 0 800 800">
  <!-- Generator: Adobe Illustrator 30.1.0, SVG Export Plug-In . SVG Version: 2.1.1 Build 136)  -->
  <defs>
    <style>
      .st0 {
        fill: #fff;
      }
    </style>
  </defs>
  <g>
    <path class="st0" d="M400,179.27c-9.37-.12-18.24,3.94-24.28,11.09l-101.92,114.86h-31.55c-34.51,0-63.1,26.62-63.1,63.1v63.1c0,34.38,28.72,63.1,63.1,63.1h31.55l101.92,114.86c6.66,8.01,15.53,11.46,24.28,11.34V179.27Z"/>
    <path class="st0" d="M494.65,305.23c-8.38,0-16.39,3.33-22.31,9.24-12.32,12.32-12.32,32.29,0,44.61l40.79,40.79-40.79,40.79c-12.32,12.32-12.32,32.29,0,44.61,12.32,12.32,32.29,12.32,44.61,0l40.79-40.79,40.79,40.79c12.32,12.32,32.29,12.32,44.61,0,12.32-12.32,12.32-32.29,0-44.61l-40.79-40.79,40.79-40.79c12.32-12.32,12.32-32.29,0-44.61-5.92-5.92-13.93-9.24-22.31-9.24s-16.39,3.33-22.31,9.24l-40.79,40.79-40.79-40.79c-5.92-5.92-13.93-9.24-22.31-9.24Z"/>
  </g>
  <path class="st0" d="M400,800c-106.84,0-207.29-41.61-282.84-117.16C41.61,607.29,0,506.84,0,400S41.61,192.71,117.16,117.16C192.71,41.61,293.16,0,400,0s207.29,41.61,282.84,117.16c75.55,75.55,117.16,176,117.16,282.84s-41.61,207.29-117.16,282.84c-75.55,75.55-176,117.16-282.84,117.16ZM400,53.72c-92.49,0-179.45,36.02-244.86,101.42s-101.42,152.36-101.42,244.86,36.02,179.45,101.42,244.86c65.4,65.4,152.36,101.42,244.86,101.42s179.45-36.02,244.86-101.42c65.4-65.4,101.42-152.36,101.42-244.86s-36.02-179.45-101.42-244.86c-65.4-65.4-152.36-101.42-244.86-101.42Z"/>
</svg>