<?xml version="1.0" encoding="UTF-8"?>
<svg id="Layer_1" xmlns="http://www.w3.org/2000/svg" version="1.1" viewBox="0 0 20 20">
  <!-- Generator: Adobe Illustrator 30.1.0, SVG Export Plug-In . SVG Version: 2.1.1 Build 136)  -->
  <defs>
    <style>
      .st0 {
        fill-rule: evenodd;
      }
    </style>
  </defs>
  <path class="st0" d="M14.69,19.97c-1.44-.05-5.52-.62-9.79-4.89C.62,10.8.06,6.72,0,5.28-.08,3.09,1.6.95,3.55.12c.23-.1.49-.14.74-.11.25.03.5.12.7.27,1.6,1.17,2.7,2.93,3.65,4.32.21.3.3.68.25,1.04s-.23.7-.51.94l-1.95,1.45c-.09.07-.16.17-.19.28-.03.11-.01.23.04.33.44.8,1.23,2,2.13,2.9.9.9,2.15,1.74,3.01,2.23.11.06.23.08.35.05.12-.03.22-.1.29-.21l1.27-1.93c.23-.31.58-.52.96-.58.38-.06.78.03,1.09.25,1.41.97,3.05,2.06,4.25,3.6.16.21.26.46.3.72.03.26,0,.53-.11.77-.84,1.95-2.95,3.62-5.16,3.53Z"/>
</svg>