<?xml version="1.0" encoding="UTF-8"?>
<svg id="Layer_1" xmlns="http://www.w3.org/2000/svg" version="1.1" viewBox="0 0 800 800">
  <!-- Generator: Adobe Illustrator 30.1.0, SVG Export Plug-In . SVG Version: 2.1.1 Build 136)  -->
  <defs>
    <style>
      .st0 {
        fill: #fff;
      }
    </style>
  </defs>
  <path class="st0" d="M400,179.27c-9.37-.12-18.24,3.94-24.28,11.09l-101.92,114.86h-31.55c-34.51,0-63.1,26.62-63.1,63.1v63.1c0,34.38,28.72,63.1,63.1,63.1h31.55l101.92,114.86c6.66,8.01,15.53,11.46,24.28,11.34V179.27Z"/>
  <path class="st0" d="M400,800c-106.84,0-207.29-41.61-282.84-117.16C41.61,607.29,0,506.84,0,400S41.61,192.71,117.16,117.16C192.71,41.61,293.16,0,400,0s207.29,41.61,282.84,117.16c75.55,75.55,117.16,176,117.16,282.84s-41.61,207.29-117.16,282.84c-75.55,75.55-176,117.16-282.84,117.16ZM400,53.72c-92.49,0-179.45,36.02-244.86,101.42s-101.42,152.36-101.42,244.86,36.02,179.45,101.42,244.86c65.4,65.4,152.36,101.42,244.86,101.42s179.45-36.02,244.86-101.42c65.4-65.4,101.42-152.36,101.42-244.86s-36.02-179.45-101.42-244.86c-65.4-65.4-152.36-101.42-244.86-101.42Z"/>
  <path class="st0" d="M568.88,217.18c-14.38,0-26.12,11.73-26.12,26.12v313.4c0,14.38,11.73,26.12,26.12,26.12s26.12-11.73,26.12-26.12V243.3c0-14.38-11.73-26.12-26.12-26.12ZM464.41,269.42c-14.38,0-26.12,11.73-26.12,26.12v208.93c0,14.38,11.73,26.12,26.12,26.12s26.12-11.73,26.12-26.12v-208.93c0-14.38-11.73-26.12-26.12-26.12Z"/>
</svg>